<svg width="174" height="24" viewBox="0 0 174 24" fill="none" xmlns="http://www.w3.org/2000/svg">
<path d="M28.7052 7.21255V14.4207L28.6819 14.3507C28.6819 15.657 27.5878 16.6834 26.1679 16.6834C24.8178 16.6834 23.8867 15.657 23.8867 14.1641V7.21255H20.6045V14.8872C20.6045 17.6165 22.4667 19.5527 25.0738 19.5527C26.6335 19.5527 27.9836 18.8529 28.7052 17.7565V19.2728H32.1038V7.21255H28.7052Z" fill="#EF4065"/>
<path d="M42.4451 6.93262C40.7691 6.93262 39.3724 7.65577 38.418 8.89211V7.21255H35.0195V23.2851H38.418V17.5699C39.3724 18.8295 40.7691 19.5527 42.4451 19.5527C45.6575 19.5527 47.9852 16.94 47.9852 13.231C47.9852 9.54528 45.6575 6.93262 42.4451 6.93262ZM41.4674 16.6834C39.8147 16.6834 38.6043 15.4704 38.418 13.6975V12.7644C38.6043 11.0149 39.8147 9.80188 41.4674 9.80188C43.353 9.80188 44.6798 11.2248 44.6798 13.231C44.6798 15.2605 43.353 16.6834 41.4674 16.6834Z" fill="#EF4065"/>
<path d="M56.0663 16.5435C54.6464 16.5435 53.5988 15.657 53.2031 14.3507H61.8858C61.8858 9.80188 59.6744 6.93262 55.9034 6.93262C52.3884 6.93262 49.7114 9.5686 49.7114 13.2077C49.7114 16.9167 52.5048 19.5527 56.0896 19.5527C57.8587 19.5527 59.9304 18.8062 61.0012 17.6865L58.8364 15.4704C58.1846 16.1002 57.0207 16.5435 56.0663 16.5435ZM56.043 9.94184C57.4164 9.94184 58.301 10.7116 58.6269 11.9013H53.2497C53.692 10.6883 54.7627 9.94184 56.043 9.94184Z" fill="#EF4065"/>
<path d="M67.5836 9.45197V7.21255H64.185V19.2728H67.5836V13.5109C67.5836 11.2482 69.1897 9.80188 71.7037 9.80188V6.93262C69.8648 6.93262 68.375 7.88904 67.5836 9.45197Z" fill="#EF4065"/>
<path d="M79.2874 18.9716C81.2893 18.9716 82.9187 18.1552 84.1059 16.8489L81.848 14.936C81.2195 15.6358 80.2418 16.1024 79.3107 16.1024C77.5183 16.1024 76.0285 14.5161 76.0285 12.6266C76.0285 10.7838 77.5183 9.22083 79.2874 9.22083C80.2185 9.22083 81.1729 9.66405 81.7781 10.3405L84.0361 8.40438C82.8722 7.1447 81.266 6.35157 79.3107 6.35157C75.7492 6.35157 72.723 9.22083 72.723 12.6499C72.723 16.0791 75.7259 18.9716 79.2874 18.9716Z" fill="#141042"/>
<path d="M91.8134 18.9716C95.3749 18.9716 98.3545 16.0791 98.3545 12.6499C98.3545 9.22083 95.3749 6.35157 91.8134 6.35157C88.2286 6.35157 85.2258 9.22083 85.2258 12.6499C85.2258 16.0791 88.2286 18.9716 91.8134 18.9716ZM91.8134 16.1024C89.9977 16.1024 88.4847 14.5161 88.4847 12.6499C88.4847 10.7838 89.9977 9.22083 91.8134 9.22083C93.6058 9.22083 95.1189 10.7838 95.1189 12.6499C95.1189 14.5161 93.6058 16.1024 91.8134 16.1024Z" fill="#141042"/>
<path d="M106.031 6.35157C104.355 6.35157 102.703 6.81812 101.003 7.68123L102.144 9.94398C103.098 9.4541 104.146 9.08087 105.263 9.08087C107.242 9.08087 108.033 10.2006 108.033 11.4836V11.7169C107.009 11.3203 105.938 11.1103 104.961 11.1103C102.167 11.1103 99.9558 12.7433 99.9558 15.1226C99.9558 17.432 101.934 18.9716 104.495 18.9716C105.799 18.9716 107.172 18.4584 108.033 17.4787V18.6917H111.315V11.4836C111.315 8.33439 109.174 6.35157 106.031 6.35157ZM105.263 16.6156C104.099 16.6156 103.238 16.0091 103.238 15.0293C103.238 14.0496 104.216 13.3264 105.449 13.3264C106.38 13.3264 107.265 13.4897 108.033 13.7697V14.8894C107.8 16.0091 106.567 16.6156 105.263 16.6156Z" fill="#141042"/>
<path d="M120.069 18.9716C122.071 18.9716 123.7 18.1552 124.888 16.8489L122.63 14.936C122.001 15.6358 121.023 16.1024 120.092 16.1024C118.3 16.1024 116.81 14.5161 116.81 12.6266C116.81 10.7838 118.3 9.22083 120.069 9.22083C121 9.22083 121.955 9.66405 122.56 10.3405L124.818 8.40438C123.654 7.1447 122.048 6.35157 120.092 6.35157C116.531 6.35157 113.505 9.22083 113.505 12.6499C113.505 16.0791 116.508 18.9716 120.069 18.9716Z" fill="#141042"/>
<path d="M133.893 6.35157C132.356 6.35157 131.03 7.05139 130.285 8.10112V2.38593H126.886V18.6917H130.285V11.5536C130.285 10.2472 131.379 9.22083 132.799 9.22083C134.149 9.22083 135.08 10.2472 135.08 11.7402V18.6917H138.362V11.017C138.362 8.28774 136.5 6.35157 133.893 6.35157Z" fill="#141042"/>
<path d="M142.93 4.97526C143.931 4.97526 144.746 4.13548 144.746 3.10908C144.746 2.15266 143.931 1.28955 142.93 1.28955C141.883 1.28955 141.068 2.15266 141.068 3.10908C141.068 4.13548 141.883 4.97526 142.93 4.97526ZM141.208 18.6917H144.607V6.6315H141.208V18.6917Z" fill="#141042"/>
<path d="M154.534 6.35157C152.974 6.35157 151.624 7.05139 150.902 8.14778V6.6315H147.504V18.6917H150.902V11.4836L150.926 11.5536C150.926 10.2472 152.02 9.22083 153.44 9.22083C154.79 9.22083 155.721 10.2472 155.721 11.7402V18.6917H159.003V11.017C159.003 8.28774 157.141 6.35157 154.534 6.35157Z" fill="#141042"/>
<path d="M170.578 6.6315V8.26441C169.763 7.12137 168.227 6.35157 166.598 6.35157C163.571 6.35157 161.267 8.70763 161.267 12.0668C161.267 15.4259 163.571 17.8053 166.598 17.8053C168.18 17.8053 169.624 17.1055 170.578 15.9391V17.2687C170.578 18.8317 169.181 19.8347 166.993 19.8347C165.597 19.8347 164.2 19.3915 163.408 18.6917L162.221 21.0944C163.408 22.0275 165.41 22.704 167.529 22.704C171.323 22.704 174 20.5112 174 17.4087V6.6315H170.578ZM167.668 14.936C165.969 14.936 164.759 13.7463 164.759 12.0668C164.759 10.3872 165.969 9.22083 167.668 9.22083C169.368 9.22083 170.578 10.3872 170.578 12.0668C170.578 13.7463 169.368 14.936 167.668 14.936Z" fill="#141042"/>
<path d="M10.0422 13.4665L4.97969 16.423L0 13.4665L5.05867 10.5227L10.0422 13.4665Z" fill="url(#paint0_linear_1_13167)"/>
<path d="M10.0422 13.4665L4.97969 16.423L0 13.4665L5.05867 10.5227L10.0422 13.4665Z" fill="#C4094A"/>
<path d="M1.58748 14.409L0 13.4665L5.05867 10.5227L6.5461 11.4013L1.58748 14.409Z" fill="black" fill-opacity="0.2"/>
<path d="M18.1901 2.87879L0 13.4664V7.63374L13.1841 0L18.1901 2.87879Z" fill="#EF4065"/>
<path d="M8.14795 10.5335L13.2091 7.57568L18.1901 10.5335L13.7508 13.8431L8.14795 10.5335Z" fill="url(#paint1_linear_1_13167)"/>
<path d="M0 21.1211L18.1901 10.5334V16.3648L5.00598 23.9999L0 21.1211Z" fill="#EF4065"/>
<defs>
<linearGradient id="paint0_linear_1_13167" x1="0" y1="13.4729" x2="10.0422" y2="13.4729" gradientUnits="userSpaceOnUse">
<stop offset="0.01" stop-color="#6A4AEB"/>
<stop offset="0.2" stop-color="#6A4AEB"/>
<stop offset="0.69" stop-color="#8263FF"/>
<stop offset="1" stop-color="#8263FF"/>
</linearGradient>
<linearGradient id="paint1_linear_1_13167" x1="13.169" y1="7.57568" x2="13.169" y2="13.8431" gradientUnits="userSpaceOnUse">
<stop stop-color="#EF4065"/>
<stop offset="1" stop-color="#A60E2F"/>
</linearGradient>
</defs>
</svg>
